<mxfile host="Electron" modified="2023-12-29T16:47:43.480Z" agent="Mozilla/5.0 (Windows NT 10.0; Win64; x64) AppleWebKit/537.36 (KHTML, like Gecko) draw.io/22.1.15 Chrome/120.0.6099.109 Electron/28.1.0 Safari/537.36" etag="glCa90KzxthC8gb3Qqti" version="22.1.15" type="device">
  <diagram name="Страница — 1" id="-DXp-cmYBOuqugTR7cqB">
    <mxGraphModel dx="1276" dy="614" grid="1" gridSize="10" guides="1" tooltips="1" connect="1" arrows="1" fold="1" page="1" pageScale="1" pageWidth="827" pageHeight="1169" math="0" shadow="0">
      <root>
        <mxCell id="0" />
        <mxCell id="1" parent="0" />
        <mxCell id="gKVIEgzoPF7q4lSZyKWB-33" value="" style="whiteSpace=wrap;html=1;aspect=fixed;" parent="1" vertex="1">
          <mxGeometry x="150" y="90" width="1070" height="1070" as="geometry" />
        </mxCell>
        <mxCell id="gKVIEgzoPF7q4lSZyKWB-10" style="edgeStyle=orthogonalEdgeStyle;rounded=0;orthogonalLoop=1;jettySize=auto;html=1;exitX=1;exitY=0.5;exitDx=0;exitDy=0;entryX=0.5;entryY=0;entryDx=0;entryDy=0;" parent="1" source="gKVIEgzoPF7q4lSZyKWB-1" target="gKVIEgzoPF7q4lSZyKWB-9" edge="1">
          <mxGeometry relative="1" as="geometry">
            <Array as="points">
              <mxPoint x="770" y="290" />
              <mxPoint x="950" y="290" />
            </Array>
          </mxGeometry>
        </mxCell>
        <mxCell id="gKVIEgzoPF7q4lSZyKWB-11" style="edgeStyle=orthogonalEdgeStyle;rounded=0;orthogonalLoop=1;jettySize=auto;html=1;exitX=0;exitY=0.5;exitDx=0;exitDy=0;entryX=0.5;entryY=0;entryDx=0;entryDy=0;" parent="1" source="gKVIEgzoPF7q4lSZyKWB-1" target="gKVIEgzoPF7q4lSZyKWB-7" edge="1">
          <mxGeometry relative="1" as="geometry">
            <Array as="points">
              <mxPoint x="590" y="290" />
              <mxPoint x="430" y="290" />
            </Array>
          </mxGeometry>
        </mxCell>
        <mxCell id="gKVIEgzoPF7q4lSZyKWB-1" value="&lt;b&gt;Abstract class Animal&lt;/b&gt;&lt;br&gt;&lt;br&gt;&lt;i&gt;Name&lt;br&gt;&lt;br&gt;Species&lt;br&gt;&lt;br&gt;Voise&lt;br&gt;&lt;br&gt;Age&lt;br&gt;&lt;br&gt;Set&amp;lt;Actions&amp;gt;&lt;/i&gt;" style="whiteSpace=wrap;html=1;aspect=fixed;" parent="1" vertex="1">
          <mxGeometry x="590" y="130" width="200" height="200" as="geometry" />
        </mxCell>
        <mxCell id="gKVIEgzoPF7q4lSZyKWB-3" value="&lt;b&gt;Action&lt;/b&gt;" style="rounded=0;whiteSpace=wrap;html=1;" parent="1" vertex="1">
          <mxGeometry x="1010" y="130" width="160" height="120" as="geometry" />
        </mxCell>
        <mxCell id="gKVIEgzoPF7q4lSZyKWB-5" value="&lt;b&gt;Interface Actionable&lt;/b&gt;" style="rounded=0;whiteSpace=wrap;html=1;" parent="1" vertex="1">
          <mxGeometry x="210" y="130" width="160" height="120" as="geometry" />
        </mxCell>
        <mxCell id="gKVIEgzoPF7q4lSZyKWB-21" style="edgeStyle=orthogonalEdgeStyle;rounded=0;orthogonalLoop=1;jettySize=auto;html=1;entryX=0.5;entryY=0;entryDx=0;entryDy=0;" parent="1" source="gKVIEgzoPF7q4lSZyKWB-7" target="gKVIEgzoPF7q4lSZyKWB-12" edge="1">
          <mxGeometry relative="1" as="geometry" />
        </mxCell>
        <mxCell id="gKVIEgzoPF7q4lSZyKWB-22" style="edgeStyle=orthogonalEdgeStyle;rounded=0;orthogonalLoop=1;jettySize=auto;html=1;exitX=0.5;exitY=1;exitDx=0;exitDy=0;entryX=0.5;entryY=0;entryDx=0;entryDy=0;" parent="1" source="gKVIEgzoPF7q4lSZyKWB-7" target="gKVIEgzoPF7q4lSZyKWB-13" edge="1">
          <mxGeometry relative="1" as="geometry" />
        </mxCell>
        <mxCell id="gKVIEgzoPF7q4lSZyKWB-23" style="edgeStyle=orthogonalEdgeStyle;rounded=0;orthogonalLoop=1;jettySize=auto;html=1;entryX=0.5;entryY=0;entryDx=0;entryDy=0;" parent="1" source="gKVIEgzoPF7q4lSZyKWB-7" target="gKVIEgzoPF7q4lSZyKWB-14" edge="1">
          <mxGeometry relative="1" as="geometry" />
        </mxCell>
        <mxCell id="gKVIEgzoPF7q4lSZyKWB-31" style="edgeStyle=orthogonalEdgeStyle;rounded=0;orthogonalLoop=1;jettySize=auto;html=1;exitX=0;exitY=0.25;exitDx=0;exitDy=0;entryX=0;entryY=0.5;entryDx=0;entryDy=0;" parent="1" source="gKVIEgzoPF7q4lSZyKWB-7" target="gKVIEgzoPF7q4lSZyKWB-28" edge="1">
          <mxGeometry relative="1" as="geometry">
            <Array as="points">
              <mxPoint x="370" y="410" />
              <mxPoint x="170" y="410" />
              <mxPoint x="170" y="975" />
            </Array>
          </mxGeometry>
        </mxCell>
        <mxCell id="gKVIEgzoPF7q4lSZyKWB-7" value="&lt;p class=&quot;MsoNormal&quot;&gt;&lt;b&gt;Pet&lt;/b&gt;&lt;/p&gt;&lt;p class=&quot;MsoNormal&quot;&gt;&lt;i&gt;Name&lt;span style=&quot;font-size: 9pt; line-height: 107%; font-family: Helvetica, sans-serif;&quot; lang=&quot;EN-US&quot;&gt;&lt;br style=&quot;border-color: var(--border-color);&quot;&gt;&lt;span style=&quot;background-image: initial; background-position: initial; background-size: initial; background-repeat: initial; background-attachment: initial; background-origin: initial; background-clip: initial;&quot;&gt;&lt;br&gt;&lt;/span&gt;&lt;/span&gt;&lt;/i&gt;&lt;/p&gt;&lt;p class=&quot;MsoNormal&quot;&gt;&lt;span style=&quot;font-size: 9pt; line-height: 107%; font-family: Helvetica, sans-serif;&quot; lang=&quot;EN-US&quot;&gt;&lt;i&gt;&lt;span style=&quot;background-image: initial; background-position: initial; background-size: initial; background-repeat: initial; background-attachment: initial; background-origin: initial; background-clip: initial;&quot;&gt;Species&lt;/span&gt;&lt;br style=&quot;border-color: var(--border-color);&quot;&gt;&lt;span style=&quot;background-image: initial; background-position: initial; background-size: initial; background-repeat: initial; background-attachment: initial; background-origin: initial; background-clip: initial;&quot;&gt;&lt;br&gt;&lt;/span&gt;&lt;/i&gt;&lt;/span&gt;&lt;/p&gt;&lt;p class=&quot;MsoNormal&quot;&gt;&lt;span style=&quot;font-size: 9pt; line-height: 107%; font-family: Helvetica, sans-serif;&quot; lang=&quot;EN-US&quot;&gt;&lt;i&gt;&lt;span style=&quot;background-image: initial; background-position: initial; background-size: initial; background-repeat: initial; background-attachment: initial; background-origin: initial; background-clip: initial;&quot;&gt;Voise&lt;/span&gt;&lt;br style=&quot;border-color: var(--border-color);&quot;&gt;&lt;span style=&quot;background-image: initial; background-position: initial; background-size: initial; background-repeat: initial; background-attachment: initial; background-origin: initial; background-clip: initial;&quot;&gt;&lt;br&gt;&lt;/span&gt;&lt;/i&gt;&lt;/span&gt;&lt;/p&gt;&lt;p class=&quot;MsoNormal&quot;&gt;&lt;span style=&quot;font-size: 9pt; line-height: 107%; font-family: Helvetica, sans-serif;&quot; lang=&quot;EN-US&quot;&gt;&lt;i&gt;&lt;span style=&quot;background-image: initial; background-position: initial; background-size: initial; background-repeat: initial; background-attachment: initial; background-origin: initial; background-clip: initial;&quot;&gt;Age&lt;/span&gt;&lt;br style=&quot;border-color: var(--border-color);&quot;&gt;&lt;span style=&quot;background-image: initial; background-position: initial; background-size: initial; background-repeat: initial; background-attachment: initial; background-origin: initial; background-clip: initial;&quot;&gt;&lt;br&gt;&lt;/span&gt;&lt;/i&gt;&lt;/span&gt;&lt;/p&gt;&lt;p class=&quot;MsoNormal&quot;&gt;&lt;span style=&quot;font-size: 9pt; line-height: 107%; font-family: Helvetica, sans-serif;&quot; lang=&quot;EN-US&quot;&gt;&lt;span style=&quot;background-image: initial; background-position: initial; background-size: initial; background-repeat: initial; background-attachment: initial; background-origin: initial; background-clip: initial;&quot;&gt;&lt;i&gt;Set&amp;lt;Actions&amp;gt;&lt;/i&gt;&lt;/span&gt;&lt;/span&gt;&lt;span lang=&quot;EN-US&quot;&gt;&lt;/span&gt;&lt;/p&gt;" style="rounded=0;whiteSpace=wrap;html=1;" parent="1" vertex="1">
          <mxGeometry x="370" y="370" width="120" height="220" as="geometry" />
        </mxCell>
        <mxCell id="gKVIEgzoPF7q4lSZyKWB-24" style="edgeStyle=orthogonalEdgeStyle;rounded=0;orthogonalLoop=1;jettySize=auto;html=1;entryX=0.5;entryY=0;entryDx=0;entryDy=0;" parent="1" source="gKVIEgzoPF7q4lSZyKWB-9" target="gKVIEgzoPF7q4lSZyKWB-15" edge="1">
          <mxGeometry relative="1" as="geometry" />
        </mxCell>
        <mxCell id="gKVIEgzoPF7q4lSZyKWB-26" value="" style="edgeStyle=orthogonalEdgeStyle;rounded=0;orthogonalLoop=1;jettySize=auto;html=1;" parent="1" source="gKVIEgzoPF7q4lSZyKWB-9" target="gKVIEgzoPF7q4lSZyKWB-16" edge="1">
          <mxGeometry relative="1" as="geometry" />
        </mxCell>
        <mxCell id="gKVIEgzoPF7q4lSZyKWB-27" style="edgeStyle=orthogonalEdgeStyle;rounded=0;orthogonalLoop=1;jettySize=auto;html=1;entryX=0.5;entryY=0;entryDx=0;entryDy=0;" parent="1" source="gKVIEgzoPF7q4lSZyKWB-9" target="gKVIEgzoPF7q4lSZyKWB-17" edge="1">
          <mxGeometry relative="1" as="geometry" />
        </mxCell>
        <mxCell id="gKVIEgzoPF7q4lSZyKWB-30" style="edgeStyle=orthogonalEdgeStyle;rounded=0;orthogonalLoop=1;jettySize=auto;html=1;entryX=1;entryY=0.5;entryDx=0;entryDy=0;" parent="1" source="gKVIEgzoPF7q4lSZyKWB-9" target="gKVIEgzoPF7q4lSZyKWB-28" edge="1">
          <mxGeometry relative="1" as="geometry">
            <Array as="points">
              <mxPoint x="1210" y="410" />
              <mxPoint x="1210" y="975" />
            </Array>
          </mxGeometry>
        </mxCell>
        <mxCell id="gKVIEgzoPF7q4lSZyKWB-9" value="&lt;p class=&quot;MsoNormal&quot;&gt;&lt;b&gt;PackAnimal&lt;/b&gt;&lt;/p&gt;&lt;p class=&quot;MsoNormal&quot;&gt;&lt;i&gt;Name&lt;span style=&quot;font-size: 9pt; line-height: 107%; font-family: Helvetica, sans-serif;&quot; lang=&quot;EN-US&quot;&gt;&lt;br style=&quot;border-color: var(--border-color);&quot;&gt;&lt;span style=&quot;background-image: initial; background-position: initial; background-size: initial; background-repeat: initial; background-attachment: initial; background-origin: initial; background-clip: initial;&quot;&gt;&lt;br&gt;&lt;/span&gt;&lt;/span&gt;&lt;/i&gt;&lt;/p&gt;&lt;p class=&quot;MsoNormal&quot;&gt;&lt;span style=&quot;font-size: 9pt; line-height: 107%; font-family: Helvetica, sans-serif;&quot; lang=&quot;EN-US&quot;&gt;&lt;i&gt;&lt;span style=&quot;background-image: initial; background-position: initial; background-size: initial; background-repeat: initial; background-attachment: initial; background-origin: initial; background-clip: initial;&quot;&gt;Species&lt;/span&gt;&lt;br style=&quot;border-color: var(--border-color);&quot;&gt;&lt;span style=&quot;background-image: initial; background-position: initial; background-size: initial; background-repeat: initial; background-attachment: initial; background-origin: initial; background-clip: initial;&quot;&gt;&lt;br&gt;&lt;/span&gt;&lt;/i&gt;&lt;/span&gt;&lt;/p&gt;&lt;p class=&quot;MsoNormal&quot;&gt;&lt;span style=&quot;font-size: 9pt; line-height: 107%; font-family: Helvetica, sans-serif;&quot; lang=&quot;EN-US&quot;&gt;&lt;i&gt;&lt;span style=&quot;background-image: initial; background-position: initial; background-size: initial; background-repeat: initial; background-attachment: initial; background-origin: initial; background-clip: initial;&quot;&gt;Voise&lt;/span&gt;&lt;br style=&quot;border-color: var(--border-color);&quot;&gt;&lt;span style=&quot;background-image: initial; background-position: initial; background-size: initial; background-repeat: initial; background-attachment: initial; background-origin: initial; background-clip: initial;&quot;&gt;&lt;br&gt;&lt;/span&gt;&lt;/i&gt;&lt;/span&gt;&lt;/p&gt;&lt;p class=&quot;MsoNormal&quot;&gt;&lt;span style=&quot;font-size: 9pt; line-height: 107%; font-family: Helvetica, sans-serif;&quot; lang=&quot;EN-US&quot;&gt;&lt;i&gt;&lt;span style=&quot;background-image: initial; background-position: initial; background-size: initial; background-repeat: initial; background-attachment: initial; background-origin: initial; background-clip: initial;&quot;&gt;Age&lt;/span&gt;&lt;br style=&quot;border-color: var(--border-color);&quot;&gt;&lt;span style=&quot;background-image: initial; background-position: initial; background-size: initial; background-repeat: initial; background-attachment: initial; background-origin: initial; background-clip: initial;&quot;&gt;&lt;br&gt;&lt;/span&gt;&lt;/i&gt;&lt;/span&gt;&lt;/p&gt;&lt;p class=&quot;MsoNormal&quot;&gt;&lt;span style=&quot;font-size: 9pt; line-height: 107%; font-family: Helvetica, sans-serif;&quot; lang=&quot;EN-US&quot;&gt;&lt;span style=&quot;background-image: initial; background-position: initial; background-size: initial; background-repeat: initial; background-attachment: initial; background-origin: initial; background-clip: initial;&quot;&gt;&lt;i&gt;Set&amp;lt;Actions&amp;gt;&lt;/i&gt;&lt;/span&gt;&lt;/span&gt;&lt;span lang=&quot;EN-US&quot;&gt;&lt;/span&gt;&lt;/p&gt;" style="rounded=0;whiteSpace=wrap;html=1;" parent="1" vertex="1">
          <mxGeometry x="890" y="370" width="120" height="220" as="geometry" />
        </mxCell>
        <mxCell id="gKVIEgzoPF7q4lSZyKWB-12" value="&lt;p class=&quot;MsoNormal&quot;&gt;&lt;b&gt;Cat&lt;/b&gt;&lt;/p&gt;&lt;p class=&quot;MsoNormal&quot;&gt;&lt;i&gt;Name&lt;span style=&quot;font-size: 9pt; line-height: 107%; font-family: Helvetica, sans-serif;&quot; lang=&quot;EN-US&quot;&gt;&lt;br style=&quot;border-color: var(--border-color);&quot;&gt;&lt;span style=&quot;background-image: initial; background-position: initial; background-size: initial; background-repeat: initial; background-attachment: initial; background-origin: initial; background-clip: initial;&quot;&gt;&lt;br&gt;&lt;/span&gt;&lt;/span&gt;&lt;/i&gt;&lt;/p&gt;&lt;p class=&quot;MsoNormal&quot;&gt;&lt;span style=&quot;font-size: 9pt; line-height: 107%; font-family: Helvetica, sans-serif;&quot; lang=&quot;EN-US&quot;&gt;&lt;i&gt;&lt;span style=&quot;background-image: initial; background-position: initial; background-size: initial; background-repeat: initial; background-attachment: initial; background-origin: initial; background-clip: initial;&quot;&gt;Species&lt;/span&gt;&lt;br style=&quot;border-color: var(--border-color);&quot;&gt;&lt;span style=&quot;background-image: initial; background-position: initial; background-size: initial; background-repeat: initial; background-attachment: initial; background-origin: initial; background-clip: initial;&quot;&gt;&lt;br&gt;&lt;/span&gt;&lt;/i&gt;&lt;/span&gt;&lt;/p&gt;&lt;p class=&quot;MsoNormal&quot;&gt;&lt;span style=&quot;font-size: 9pt; line-height: 107%; font-family: Helvetica, sans-serif;&quot; lang=&quot;EN-US&quot;&gt;&lt;i&gt;&lt;span style=&quot;background-image: initial; background-position: initial; background-size: initial; background-repeat: initial; background-attachment: initial; background-origin: initial; background-clip: initial;&quot;&gt;Voise&lt;/span&gt;&lt;br style=&quot;border-color: var(--border-color);&quot;&gt;&lt;span style=&quot;background-image: initial; background-position: initial; background-size: initial; background-repeat: initial; background-attachment: initial; background-origin: initial; background-clip: initial;&quot;&gt;&lt;br&gt;&lt;/span&gt;&lt;/i&gt;&lt;/span&gt;&lt;/p&gt;&lt;p class=&quot;MsoNormal&quot;&gt;&lt;span style=&quot;font-size: 9pt; line-height: 107%; font-family: Helvetica, sans-serif;&quot; lang=&quot;EN-US&quot;&gt;&lt;i&gt;&lt;span style=&quot;background-image: initial; background-position: initial; background-size: initial; background-repeat: initial; background-attachment: initial; background-origin: initial; background-clip: initial;&quot;&gt;Age&lt;/span&gt;&lt;br style=&quot;border-color: var(--border-color);&quot;&gt;&lt;span style=&quot;background-image: initial; background-position: initial; background-size: initial; background-repeat: initial; background-attachment: initial; background-origin: initial; background-clip: initial;&quot;&gt;&lt;br&gt;&lt;/span&gt;&lt;/i&gt;&lt;/span&gt;&lt;/p&gt;&lt;p class=&quot;MsoNormal&quot;&gt;&lt;span style=&quot;font-size: 9pt; line-height: 107%; font-family: Helvetica, sans-serif;&quot; lang=&quot;EN-US&quot;&gt;&lt;span style=&quot;background-image: initial; background-position: initial; background-size: initial; background-repeat: initial; background-attachment: initial; background-origin: initial; background-clip: initial;&quot;&gt;&lt;i&gt;Set&amp;lt;Actions&amp;gt;&lt;/i&gt;&lt;/span&gt;&lt;/span&gt;&lt;span lang=&quot;EN-US&quot;&gt;&lt;/span&gt;&lt;/p&gt;" style="rounded=0;whiteSpace=wrap;html=1;" parent="1" vertex="1">
          <mxGeometry x="210" y="650" width="120" height="220" as="geometry" />
        </mxCell>
        <mxCell id="gKVIEgzoPF7q4lSZyKWB-13" value="&lt;p class=&quot;MsoNormal&quot;&gt;&lt;b&gt;Dog&lt;/b&gt;&lt;/p&gt;&lt;p class=&quot;MsoNormal&quot;&gt;&lt;i&gt;Name&lt;span style=&quot;font-size: 9pt; line-height: 107%; font-family: Helvetica, sans-serif;&quot; lang=&quot;EN-US&quot;&gt;&lt;br style=&quot;border-color: var(--border-color);&quot;&gt;&lt;span style=&quot;background-image: initial; background-position: initial; background-size: initial; background-repeat: initial; background-attachment: initial; background-origin: initial; background-clip: initial;&quot;&gt;&lt;br&gt;&lt;/span&gt;&lt;/span&gt;&lt;/i&gt;&lt;/p&gt;&lt;p class=&quot;MsoNormal&quot;&gt;&lt;span style=&quot;font-size: 9pt; line-height: 107%; font-family: Helvetica, sans-serif;&quot; lang=&quot;EN-US&quot;&gt;&lt;i&gt;&lt;span style=&quot;background-image: initial; background-position: initial; background-size: initial; background-repeat: initial; background-attachment: initial; background-origin: initial; background-clip: initial;&quot;&gt;Species&lt;/span&gt;&lt;br style=&quot;border-color: var(--border-color);&quot;&gt;&lt;span style=&quot;background-image: initial; background-position: initial; background-size: initial; background-repeat: initial; background-attachment: initial; background-origin: initial; background-clip: initial;&quot;&gt;&lt;br&gt;&lt;/span&gt;&lt;/i&gt;&lt;/span&gt;&lt;/p&gt;&lt;p class=&quot;MsoNormal&quot;&gt;&lt;span style=&quot;font-size: 9pt; line-height: 107%; font-family: Helvetica, sans-serif;&quot; lang=&quot;EN-US&quot;&gt;&lt;i&gt;&lt;span style=&quot;background-image: initial; background-position: initial; background-size: initial; background-repeat: initial; background-attachment: initial; background-origin: initial; background-clip: initial;&quot;&gt;Voise&lt;/span&gt;&lt;br style=&quot;border-color: var(--border-color);&quot;&gt;&lt;span style=&quot;background-image: initial; background-position: initial; background-size: initial; background-repeat: initial; background-attachment: initial; background-origin: initial; background-clip: initial;&quot;&gt;&lt;br&gt;&lt;/span&gt;&lt;/i&gt;&lt;/span&gt;&lt;/p&gt;&lt;p class=&quot;MsoNormal&quot;&gt;&lt;span style=&quot;font-size: 9pt; line-height: 107%; font-family: Helvetica, sans-serif;&quot; lang=&quot;EN-US&quot;&gt;&lt;i&gt;&lt;span style=&quot;background-image: initial; background-position: initial; background-size: initial; background-repeat: initial; background-attachment: initial; background-origin: initial; background-clip: initial;&quot;&gt;Age&lt;/span&gt;&lt;br style=&quot;border-color: var(--border-color);&quot;&gt;&lt;span style=&quot;background-image: initial; background-position: initial; background-size: initial; background-repeat: initial; background-attachment: initial; background-origin: initial; background-clip: initial;&quot;&gt;&lt;br&gt;&lt;/span&gt;&lt;/i&gt;&lt;/span&gt;&lt;/p&gt;&lt;p class=&quot;MsoNormal&quot;&gt;&lt;span style=&quot;font-size: 9pt; line-height: 107%; font-family: Helvetica, sans-serif;&quot; lang=&quot;EN-US&quot;&gt;&lt;span style=&quot;background-image: initial; background-position: initial; background-size: initial; background-repeat: initial; background-attachment: initial; background-origin: initial; background-clip: initial;&quot;&gt;&lt;i&gt;Set&amp;lt;Actions&amp;gt;&lt;/i&gt;&lt;/span&gt;&lt;/span&gt;&lt;span lang=&quot;EN-US&quot;&gt;&lt;/span&gt;&lt;/p&gt;" style="rounded=0;whiteSpace=wrap;html=1;" parent="1" vertex="1">
          <mxGeometry x="370" y="650" width="120" height="220" as="geometry" />
        </mxCell>
        <mxCell id="gKVIEgzoPF7q4lSZyKWB-14" value="&lt;p class=&quot;MsoNormal&quot;&gt;&lt;b&gt;Hamster&lt;/b&gt;&lt;/p&gt;&lt;p class=&quot;MsoNormal&quot;&gt;&lt;i&gt;Name&lt;span style=&quot;font-size: 9pt; line-height: 107%; font-family: Helvetica, sans-serif;&quot; lang=&quot;EN-US&quot;&gt;&lt;br style=&quot;border-color: var(--border-color);&quot;&gt;&lt;span style=&quot;background-image: initial; background-position: initial; background-size: initial; background-repeat: initial; background-attachment: initial; background-origin: initial; background-clip: initial;&quot;&gt;&lt;br&gt;&lt;/span&gt;&lt;/span&gt;&lt;/i&gt;&lt;/p&gt;&lt;p class=&quot;MsoNormal&quot;&gt;&lt;span style=&quot;font-size: 9pt; line-height: 107%; font-family: Helvetica, sans-serif;&quot; lang=&quot;EN-US&quot;&gt;&lt;i&gt;&lt;span style=&quot;background-image: initial; background-position: initial; background-size: initial; background-repeat: initial; background-attachment: initial; background-origin: initial; background-clip: initial;&quot;&gt;Species&lt;/span&gt;&lt;br style=&quot;border-color: var(--border-color);&quot;&gt;&lt;span style=&quot;background-image: initial; background-position: initial; background-size: initial; background-repeat: initial; background-attachment: initial; background-origin: initial; background-clip: initial;&quot;&gt;&lt;br&gt;&lt;/span&gt;&lt;/i&gt;&lt;/span&gt;&lt;/p&gt;&lt;p class=&quot;MsoNormal&quot;&gt;&lt;span style=&quot;font-size: 9pt; line-height: 107%; font-family: Helvetica, sans-serif;&quot; lang=&quot;EN-US&quot;&gt;&lt;i&gt;&lt;span style=&quot;background-image: initial; background-position: initial; background-size: initial; background-repeat: initial; background-attachment: initial; background-origin: initial; background-clip: initial;&quot;&gt;Voise&lt;/span&gt;&lt;br style=&quot;border-color: var(--border-color);&quot;&gt;&lt;span style=&quot;background-image: initial; background-position: initial; background-size: initial; background-repeat: initial; background-attachment: initial; background-origin: initial; background-clip: initial;&quot;&gt;&lt;br&gt;&lt;/span&gt;&lt;/i&gt;&lt;/span&gt;&lt;/p&gt;&lt;p class=&quot;MsoNormal&quot;&gt;&lt;span style=&quot;font-size: 9pt; line-height: 107%; font-family: Helvetica, sans-serif;&quot; lang=&quot;EN-US&quot;&gt;&lt;i&gt;&lt;span style=&quot;background-image: initial; background-position: initial; background-size: initial; background-repeat: initial; background-attachment: initial; background-origin: initial; background-clip: initial;&quot;&gt;Age&lt;/span&gt;&lt;br style=&quot;border-color: var(--border-color);&quot;&gt;&lt;span style=&quot;background-image: initial; background-position: initial; background-size: initial; background-repeat: initial; background-attachment: initial; background-origin: initial; background-clip: initial;&quot;&gt;&lt;br&gt;&lt;/span&gt;&lt;/i&gt;&lt;/span&gt;&lt;/p&gt;&lt;p class=&quot;MsoNormal&quot;&gt;&lt;span style=&quot;font-size: 9pt; line-height: 107%; font-family: Helvetica, sans-serif;&quot; lang=&quot;EN-US&quot;&gt;&lt;span style=&quot;background-image: initial; background-position: initial; background-size: initial; background-repeat: initial; background-attachment: initial; background-origin: initial; background-clip: initial;&quot;&gt;&lt;i&gt;Set&amp;lt;Actions&amp;gt;&lt;/i&gt;&lt;/span&gt;&lt;/span&gt;&lt;span lang=&quot;EN-US&quot;&gt;&lt;/span&gt;&lt;/p&gt;" style="rounded=0;whiteSpace=wrap;html=1;" parent="1" vertex="1">
          <mxGeometry x="530" y="650" width="120" height="220" as="geometry" />
        </mxCell>
        <mxCell id="gKVIEgzoPF7q4lSZyKWB-15" value="&lt;p class=&quot;MsoNormal&quot;&gt;&lt;b&gt;Horse&lt;/b&gt;&lt;/p&gt;&lt;p class=&quot;MsoNormal&quot;&gt;&lt;i&gt;Name&lt;span style=&quot;font-size: 9pt; line-height: 107%; font-family: Helvetica, sans-serif;&quot; lang=&quot;EN-US&quot;&gt;&lt;br style=&quot;border-color: var(--border-color);&quot;&gt;&lt;span style=&quot;background-image: initial; background-position: initial; background-size: initial; background-repeat: initial; background-attachment: initial; background-origin: initial; background-clip: initial;&quot;&gt;&lt;br&gt;&lt;/span&gt;&lt;/span&gt;&lt;/i&gt;&lt;/p&gt;&lt;p class=&quot;MsoNormal&quot;&gt;&lt;span style=&quot;font-size: 9pt; line-height: 107%; font-family: Helvetica, sans-serif;&quot; lang=&quot;EN-US&quot;&gt;&lt;i&gt;&lt;span style=&quot;background-image: initial; background-position: initial; background-size: initial; background-repeat: initial; background-attachment: initial; background-origin: initial; background-clip: initial;&quot;&gt;Species&lt;/span&gt;&lt;br style=&quot;border-color: var(--border-color);&quot;&gt;&lt;span style=&quot;background-image: initial; background-position: initial; background-size: initial; background-repeat: initial; background-attachment: initial; background-origin: initial; background-clip: initial;&quot;&gt;&lt;br&gt;&lt;/span&gt;&lt;/i&gt;&lt;/span&gt;&lt;/p&gt;&lt;p class=&quot;MsoNormal&quot;&gt;&lt;span style=&quot;font-size: 9pt; line-height: 107%; font-family: Helvetica, sans-serif;&quot; lang=&quot;EN-US&quot;&gt;&lt;i&gt;&lt;span style=&quot;background-image: initial; background-position: initial; background-size: initial; background-repeat: initial; background-attachment: initial; background-origin: initial; background-clip: initial;&quot;&gt;Voise&lt;/span&gt;&lt;br style=&quot;border-color: var(--border-color);&quot;&gt;&lt;span style=&quot;background-image: initial; background-position: initial; background-size: initial; background-repeat: initial; background-attachment: initial; background-origin: initial; background-clip: initial;&quot;&gt;&lt;br&gt;&lt;/span&gt;&lt;/i&gt;&lt;/span&gt;&lt;/p&gt;&lt;p class=&quot;MsoNormal&quot;&gt;&lt;span style=&quot;font-size: 9pt; line-height: 107%; font-family: Helvetica, sans-serif;&quot; lang=&quot;EN-US&quot;&gt;&lt;i&gt;&lt;span style=&quot;background-image: initial; background-position: initial; background-size: initial; background-repeat: initial; background-attachment: initial; background-origin: initial; background-clip: initial;&quot;&gt;Age&lt;/span&gt;&lt;br style=&quot;border-color: var(--border-color);&quot;&gt;&lt;span style=&quot;background-image: initial; background-position: initial; background-size: initial; background-repeat: initial; background-attachment: initial; background-origin: initial; background-clip: initial;&quot;&gt;&lt;br&gt;&lt;/span&gt;&lt;/i&gt;&lt;/span&gt;&lt;/p&gt;&lt;p class=&quot;MsoNormal&quot;&gt;&lt;span style=&quot;font-size: 9pt; line-height: 107%; font-family: Helvetica, sans-serif;&quot; lang=&quot;EN-US&quot;&gt;&lt;span style=&quot;background-image: initial; background-position: initial; background-size: initial; background-repeat: initial; background-attachment: initial; background-origin: initial; background-clip: initial;&quot;&gt;&lt;i&gt;Set&amp;lt;Actions&amp;gt;&lt;/i&gt;&lt;/span&gt;&lt;/span&gt;&lt;span lang=&quot;EN-US&quot;&gt;&lt;/span&gt;&lt;/p&gt;" style="rounded=0;whiteSpace=wrap;html=1;" parent="1" vertex="1">
          <mxGeometry x="730" y="650" width="120" height="220" as="geometry" />
        </mxCell>
        <mxCell id="gKVIEgzoPF7q4lSZyKWB-16" value="&lt;p class=&quot;MsoNormal&quot;&gt;&lt;b&gt;Camel&lt;/b&gt;&lt;/p&gt;&lt;p class=&quot;MsoNormal&quot;&gt;Name&lt;span style=&quot;font-size: 9pt; line-height: 107%; font-family: Helvetica, sans-serif;&quot; lang=&quot;EN-US&quot;&gt;&lt;br style=&quot;border-color: var(--border-color);&quot;&gt;&lt;span style=&quot;background-image: initial; background-position: initial; background-size: initial; background-repeat: initial; background-attachment: initial; background-origin: initial; background-clip: initial;&quot;&gt;&lt;br&gt;&lt;/span&gt;&lt;/span&gt;&lt;/p&gt;&lt;p class=&quot;MsoNormal&quot;&gt;&lt;span style=&quot;font-size: 9pt; line-height: 107%; font-family: Helvetica, sans-serif;&quot; lang=&quot;EN-US&quot;&gt;&lt;span style=&quot;background-image: initial; background-position: initial; background-size: initial; background-repeat: initial; background-attachment: initial; background-origin: initial; background-clip: initial;&quot;&gt;Species&lt;/span&gt;&lt;br style=&quot;border-color: var(--border-color);&quot;&gt;&lt;span style=&quot;background-image: initial; background-position: initial; background-size: initial; background-repeat: initial; background-attachment: initial; background-origin: initial; background-clip: initial;&quot;&gt;&lt;br&gt;&lt;/span&gt;&lt;/span&gt;&lt;/p&gt;&lt;p class=&quot;MsoNormal&quot;&gt;&lt;span style=&quot;font-size: 9pt; line-height: 107%; font-family: Helvetica, sans-serif;&quot; lang=&quot;EN-US&quot;&gt;&lt;span style=&quot;background-image: initial; background-position: initial; background-size: initial; background-repeat: initial; background-attachment: initial; background-origin: initial; background-clip: initial;&quot;&gt;Voise&lt;/span&gt;&lt;br style=&quot;border-color: var(--border-color);&quot;&gt;&lt;span style=&quot;background-image: initial; background-position: initial; background-size: initial; background-repeat: initial; background-attachment: initial; background-origin: initial; background-clip: initial;&quot;&gt;&lt;br&gt;&lt;/span&gt;&lt;/span&gt;&lt;/p&gt;&lt;p class=&quot;MsoNormal&quot;&gt;&lt;span style=&quot;font-size: 9pt; line-height: 107%; font-family: Helvetica, sans-serif;&quot; lang=&quot;EN-US&quot;&gt;&lt;span style=&quot;background-image: initial; background-position: initial; background-size: initial; background-repeat: initial; background-attachment: initial; background-origin: initial; background-clip: initial;&quot;&gt;Age&lt;/span&gt;&lt;br style=&quot;border-color: var(--border-color);&quot;&gt;&lt;span style=&quot;background-image: initial; background-position: initial; background-size: initial; background-repeat: initial; background-attachment: initial; background-origin: initial; background-clip: initial;&quot;&gt;&lt;br&gt;&lt;/span&gt;&lt;/span&gt;&lt;/p&gt;&lt;p class=&quot;MsoNormal&quot;&gt;&lt;span style=&quot;font-size: 9pt; line-height: 107%; font-family: Helvetica, sans-serif;&quot; lang=&quot;EN-US&quot;&gt;&lt;span style=&quot;background-image: initial; background-position: initial; background-size: initial; background-repeat: initial; background-attachment: initial; background-origin: initial; background-clip: initial;&quot;&gt;Set&amp;lt;Actions&amp;gt;&lt;/span&gt;&lt;/span&gt;&lt;span lang=&quot;EN-US&quot;&gt;&lt;/span&gt;&lt;/p&gt;" style="rounded=0;whiteSpace=wrap;html=1;" parent="1" vertex="1">
          <mxGeometry x="890" y="650" width="120" height="220" as="geometry" />
        </mxCell>
        <mxCell id="gKVIEgzoPF7q4lSZyKWB-17" value="&lt;p class=&quot;MsoNormal&quot;&gt;&lt;b&gt;Donkey&lt;/b&gt;&lt;/p&gt;&lt;p class=&quot;MsoNormal&quot;&gt;&lt;i&gt;Name&lt;span style=&quot;font-size: 9pt; line-height: 107%; font-family: Helvetica, sans-serif;&quot; lang=&quot;EN-US&quot;&gt;&lt;br style=&quot;border-color: var(--border-color);&quot;&gt;&lt;span style=&quot;background-image: initial; background-position: initial; background-size: initial; background-repeat: initial; background-attachment: initial; background-origin: initial; background-clip: initial;&quot;&gt;&lt;br&gt;&lt;/span&gt;&lt;/span&gt;&lt;/i&gt;&lt;/p&gt;&lt;p class=&quot;MsoNormal&quot;&gt;&lt;span style=&quot;font-size: 9pt; line-height: 107%; font-family: Helvetica, sans-serif;&quot; lang=&quot;EN-US&quot;&gt;&lt;i&gt;&lt;span style=&quot;background-image: initial; background-position: initial; background-size: initial; background-repeat: initial; background-attachment: initial; background-origin: initial; background-clip: initial;&quot;&gt;Species&lt;/span&gt;&lt;br style=&quot;border-color: var(--border-color);&quot;&gt;&lt;span style=&quot;background-image: initial; background-position: initial; background-size: initial; background-repeat: initial; background-attachment: initial; background-origin: initial; background-clip: initial;&quot;&gt;&lt;br&gt;&lt;/span&gt;&lt;/i&gt;&lt;/span&gt;&lt;/p&gt;&lt;p class=&quot;MsoNormal&quot;&gt;&lt;span style=&quot;font-size: 9pt; line-height: 107%; font-family: Helvetica, sans-serif;&quot; lang=&quot;EN-US&quot;&gt;&lt;i&gt;&lt;span style=&quot;background-image: initial; background-position: initial; background-size: initial; background-repeat: initial; background-attachment: initial; background-origin: initial; background-clip: initial;&quot;&gt;Voise&lt;/span&gt;&lt;br style=&quot;border-color: var(--border-color);&quot;&gt;&lt;span style=&quot;background-image: initial; background-position: initial; background-size: initial; background-repeat: initial; background-attachment: initial; background-origin: initial; background-clip: initial;&quot;&gt;&lt;br&gt;&lt;/span&gt;&lt;/i&gt;&lt;/span&gt;&lt;/p&gt;&lt;p class=&quot;MsoNormal&quot;&gt;&lt;span style=&quot;font-size: 9pt; line-height: 107%; font-family: Helvetica, sans-serif;&quot; lang=&quot;EN-US&quot;&gt;&lt;i&gt;&lt;span style=&quot;background-image: initial; background-position: initial; background-size: initial; background-repeat: initial; background-attachment: initial; background-origin: initial; background-clip: initial;&quot;&gt;Age&lt;/span&gt;&lt;br style=&quot;border-color: var(--border-color);&quot;&gt;&lt;span style=&quot;background-image: initial; background-position: initial; background-size: initial; background-repeat: initial; background-attachment: initial; background-origin: initial; background-clip: initial;&quot;&gt;&lt;br&gt;&lt;/span&gt;&lt;/i&gt;&lt;/span&gt;&lt;/p&gt;&lt;p class=&quot;MsoNormal&quot;&gt;&lt;span style=&quot;font-size: 9pt; line-height: 107%; font-family: Helvetica, sans-serif;&quot; lang=&quot;EN-US&quot;&gt;&lt;span style=&quot;background-image: initial; background-position: initial; background-size: initial; background-repeat: initial; background-attachment: initial; background-origin: initial; background-clip: initial;&quot;&gt;&lt;i&gt;Set&amp;lt;Actions&amp;gt;&lt;/i&gt;&lt;/span&gt;&lt;/span&gt;&lt;span lang=&quot;EN-US&quot;&gt;&lt;/span&gt;&lt;/p&gt;" style="rounded=0;whiteSpace=wrap;html=1;" parent="1" vertex="1">
          <mxGeometry x="1050" y="650" width="120" height="220" as="geometry" />
        </mxCell>
        <mxCell id="gKVIEgzoPF7q4lSZyKWB-19" style="edgeStyle=orthogonalEdgeStyle;rounded=0;orthogonalLoop=1;jettySize=auto;html=1;exitX=1;exitY=0.5;exitDx=0;exitDy=0;entryX=-0.011;entryY=0.302;entryDx=0;entryDy=0;entryPerimeter=0;" parent="1" source="gKVIEgzoPF7q4lSZyKWB-5" target="gKVIEgzoPF7q4lSZyKWB-1" edge="1">
          <mxGeometry relative="1" as="geometry" />
        </mxCell>
        <mxCell id="gKVIEgzoPF7q4lSZyKWB-20" style="edgeStyle=orthogonalEdgeStyle;rounded=0;orthogonalLoop=1;jettySize=auto;html=1;entryX=1.011;entryY=0.302;entryDx=0;entryDy=0;entryPerimeter=0;" parent="1" source="gKVIEgzoPF7q4lSZyKWB-3" target="gKVIEgzoPF7q4lSZyKWB-1" edge="1">
          <mxGeometry relative="1" as="geometry" />
        </mxCell>
        <mxCell id="gKVIEgzoPF7q4lSZyKWB-28" value="&lt;b&gt;AnimalShelter&lt;/b&gt;&lt;br&gt;&lt;br&gt;&lt;i style=&quot;&quot;&gt;List &amp;lt;PackAnimal&amp;gt;&lt;/i&gt;" style="whiteSpace=wrap;html=1;aspect=fixed;" parent="1" vertex="1">
          <mxGeometry x="610" y="890" width="170" height="170" as="geometry" />
        </mxCell>
        <mxCell id="gKVIEgzoPF7q4lSZyKWB-34" value="&lt;font style=&quot;font-size: 24px;&quot;&gt;&lt;b&gt;Model&lt;/b&gt;&lt;/font&gt;" style="text;html=1;align=center;verticalAlign=middle;resizable=0;points=[];autosize=1;strokeColor=none;fillColor=none;" parent="1" vertex="1">
          <mxGeometry x="680" y="40" width="90" height="40" as="geometry" />
        </mxCell>
        <mxCell id="gKVIEgzoPF7q4lSZyKWB-38" value="" style="edgeStyle=orthogonalEdgeStyle;rounded=0;orthogonalLoop=1;jettySize=auto;html=1;" parent="1" source="gKVIEgzoPF7q4lSZyKWB-35" target="gKVIEgzoPF7q4lSZyKWB-33" edge="1">
          <mxGeometry relative="1" as="geometry" />
        </mxCell>
        <mxCell id="gKVIEgzoPF7q4lSZyKWB-35" value="&lt;b&gt;Presenter&lt;/b&gt;&lt;br&gt;&lt;br&gt;&lt;i style=&quot;&quot;&gt;&lt;br&gt;&lt;br&gt;Model&lt;/i&gt;" style="whiteSpace=wrap;html=1;aspect=fixed;" parent="1" vertex="1">
          <mxGeometry x="590" y="1200" width="190" height="190" as="geometry" />
        </mxCell>
        <mxCell id="gKVIEgzoPF7q4lSZyKWB-41" style="edgeStyle=orthogonalEdgeStyle;rounded=0;orthogonalLoop=1;jettySize=auto;html=1;entryX=0.5;entryY=1;entryDx=0;entryDy=0;" parent="1" source="gKVIEgzoPF7q4lSZyKWB-40" target="gKVIEgzoPF7q4lSZyKWB-35" edge="1">
          <mxGeometry relative="1" as="geometry" />
        </mxCell>
        <mxCell id="gKVIEgzoPF7q4lSZyKWB-40" value="&lt;i&gt;&lt;b&gt;UserInterface&lt;/b&gt;&lt;br&gt;&lt;br&gt;Presenter&lt;/i&gt;&lt;i style=&quot;&quot;&gt;&lt;br&gt;&lt;/i&gt;" style="whiteSpace=wrap;html=1;aspect=fixed;" parent="1" vertex="1">
          <mxGeometry x="595" y="1450" width="180" height="180" as="geometry" />
        </mxCell>
      </root>
    </mxGraphModel>
  </diagram>
</mxfile>
